<?xml version="1.0" encoding="utf-8"?>
<?xml-stylesheet type="text/xsl" href="rss1.xsl"?>
<rss version="2.0" xmlns:atom="http://www.w3.org/2005/Atom" xmlns:content="http://purl.org/rss/1.0/modules/content/" xmlns:dc="http://purl.org/dc/elements/1.1/" xmlns:media="http://search.yahoo.com/mrss/">
<channel>
 <title>Getty</title>
 <link>http://www.gettyimg.com/</link>
 <atom:link href="http://www.gettyimg.com/" rel="self" type="application/rss+xml" />

 
                <item>
                <title><![CDATA[【HD Live Performances】HDTV - P!nk: Live at Rock In Rio (2019) 1080i.HDTV.DD5.1.H.264-NoGRP [CHAPTER MENU]]]></title>
                <link><![CDATA[https://sharemania.us/threads/p-nk-live-at-rock-in-rio-2019-1080i-hdtv-dd5-1-h-264-nogrp-chapter-menu.244172/]]></link>
                <description><![CDATA[<article>
<blockquote class="messageText SelectQuoteContainer ugc baseHtml">
<span style="font-size: 26px"><b>P!nk: Live at Rock In Rio (2019)</b></span><br>
<br>
<span style="color: rgb(51, 102, 0)"><span style="font-size: 22px">Chapter Menu</span></span><br>
<br>
Menu<br>
00:06:39.525 : Get the Party Started<br>
00:10:28.420 : Beautiful Trauma<br>
00:14:46.109 : Just Like a Pill<br>
00:18:41.605 : Who Knew<br>
00:24:14.505 : Funhouse<br>
00:26:26.894 : Just a Girl<br>
00:30:54.894 : Hustle<br>
00:34:49.600 : Secrets<br>
00:41:46.397 : Try<br>
00:46:50.727 : Just Give Me a Reason<br>
00:51:05.148 : Just Like Fire<br>
00:57:32.894 : What About Us<br>
01:02:09.894 : We Are the Champions<br>
01:06:23.372 : Walk Me Home<br>
01:09:54.894 : I Am Here<br>
01:17:17.316 : F**kin' Perfect<br>
01:23:17.114 : Raise Your Glass<br>
01:29:02.894 : Blow Me (One Last Kiss)<br>
01:33:03.523 : Can We Pretend (Feat. Cash Cash)<br>
01:36:16.894 : So What (Intro) [Pink cumprimenta o público]<br>
01:37:42.113 : So What<br>
<br>
<img src="https://images2.imgbox.com/3f/62/6kMWX7qr_o.png" class="bbCodeImage LbImage" alt="[​IMG]" data-url="https://images2.imgbox.com/3f/62/6kMWX7qr_o.png" style=""><br>
<img src="https://images2.imgbox.com/5e/6c/B3R9kpu5_o.jpg" class="bbCodeImage LbImage" alt="[​IMG]" data-url="https://images2.imgbox.com/5e/6c/B3R9kpu5_o.jpg" style=""><br>
<br>
<div class="ToggleTriggerAnchor bbCodeSpoilerContainer">
<button type="button" class="button bbCodeSpoilerButton ToggleTrigger Tooltip JsOnly" data-target="> .SpoilerTarget"><span>Spoiler: <span class="SpoilerTitle">MediaInfo</span></span></button>
<div class="SpoilerTarget bbCodeSpoilerText">
<div class="bbCodeBlock bbCodeCode">
<div class="type">Code:</div>
<pre>General
Unique ID                   : 15380196581605086478931613063100778792 (0xB921E3CC3F613E62628390179B44928)
Complete name               : Pink.Rock.In.Rio.VIII.2019.1080i.HDTV.DD5.1.H.264-NoGRP.mkv
Format                      : Matroska
Format version              : Version 4
File size                   : 7.74 GiB
Duration                    : 1 h 43 min
Overall bit rate            : 10.7 Mb/s
Frame rate                  : 29.970 FPS
Movie name                  : P!nk: Rock In Rio (2019)
Encoded date                : 2024-05-09 07:43:20 UTC
Writing application         : mkvmerge v84.0 ('Sleeper') 64-bit
Writing library             : libebml v1.4.5 + libmatroska v1.7.1

Video
ID                          : 1
Format                      : AVC
Format/Info                 : Advanced Video Codec
Format profile              : High@L4
Format settings             : CABAC / 4 Ref Frames
Format settings, CABAC      : Yes
Format settings, Reference  : 4 frames
Codec ID                    : V_MPEG4/ISO/AVC
Duration                    : 1 h 43 min
Bit rate                    : 10.3 Mb/s
Width                       : 1 920 pixels
Height                      : 1 080 pixels
Display aspect ratio        : 16:9
Frame rate mode             : Constant
Frame rate                  : 29.970 (30000/1001) FPS
Color space                 : YUV
Chroma subsampling          : 4:2:0
Bit depth                   : 8 bits
Scan type                   : MBAFF
Scan type, store method     : Interleaved fields
Scan order                  : Top Field First
Bits/(Pixel*Frame)          : 0.166
Stream size                 : 7.46 GiB (96%)
Default                     : Yes
Forced                      : No

Audio
ID                          : 2
Format                      : AC-3
Format/Info                 : Audio Coding 3
Commercial name             : Dolby Digital
Codec ID                    : A_AC3
Duration                    : 1 h 43 min
Bit rate mode               : Constant
Bit rate                    : 384 kb/s
Channel(s)                  : 6 channels
Channel layout              : L R C LFE Ls Rs
Sampling rate               : 48.0 kHz
Frame rate                  : 31.250 FPS (1536 SPF)
Compression mode            : Lossy
Stream size                 : 285 MiB (4%)
Title                       : AC3
Language                    : English
Service kind                : Complete Main
Default                     : Yes
Forced                      : No
AC3_metadata cmixlev        : -3.0 dB
 surmixlev                  : -3 dB

Menu
00:06:39.525                :  Get the Party Started
00:10:28.420                :  Beautiful Trauma
00:14:46.109                :  Just Like a Pill
00:18:41.605                :  Who Knew
00:24:14.505                :  Funhouse
00:26:26.894                :  Just a Girl
00:30:54.894                :  Hustle
00:34:49.600                :  Secrets
00:41:46.397                :  Try
00:46:50.727                :  Just Give Me a Reason
00:51:05.148                :  Just Like Fire
00:57:32.894                :  What About Us
01:02:09.894                :  We Are the Champions
01:06:23.372                :  Walk Me Home
01:09:54.894                :  I Am Here
01:17:17.316                :  F**kin' Perfect
01:23:17.114                :  Raise Your Glass
01:29:02.894                :  Blow Me (One Last Kiss)
01:33:03.523                :  Can We Pretend (Feat. Cash Cash)
01:36:16.894                :  So What (Intro) [Pink cumprimenta o público]
01:37:42.113                :  So What
</pre>
</div></div>
</div>
<div class="ToggleTriggerAnchor bbCodeSpoilerContainer">
<button type="button" class="button bbCodeSpoilerButton ToggleTrigger Tooltip JsOnly" data-target="> .SpoilerTarget"><span>Spoiler: <span class="SpoilerTitle">Download</span></span></button>
<div class="SpoilerTarget bbCodeSpoilerText">
<div class="bbCodeBlock bbCodeVfcHH HiddenContent">
<div class="attribution type">Hidden Content:</div>
<blockquote>You must reply before you can see the hidden data contained here.</blockquote>
</div></div>
</div>
<div class="messageTextEndMarker">&nbsp;</div>
</blockquote>
</article>]]></description>
                <author><![CDATA[AlexVicente]]></author>
                </item>

                </channel></rss>